<?xml version="1.0" encoding="UTF-8" standalone="no"?>
<!-- Generator: Adobe Illustrator 16.0.0, SVG Export Plug-In . SVG Version: 6.00 Build 0)  -->
<!DOCTYPE svg  PUBLIC '-//W3C//DTD SVG 1.1//EN'  'http://www.w3.org/Graphics/SVG/1.1/DTD/svg11.dtd'>
<svg id="Layer_1" xmlns="http://www.w3.org/2000/svg" xml:space="preserve" height="209.5px" viewBox="0 0 177.5 209.5" width="177.5px" version="1.1" y="0px" x="0px" xmlns:xlink="http://www.w3.org/1999/xlink" enable-background="new 0 0 177.5 209.5">
<path fill="#496EB3" clip-rule="evenodd" d="m43.88 3.74c2.305 1.149 3.439 2.836 3.409 5.588-0.119 10.594-0.115 21.191 0.008 31.785 0.024 2.107-2.576 4.708-4.683 4.683-10.594-0.123-21.191-0.127-31.785-0.008-2.752 0.031-4.439-1.103-5.589-3.408v-35.28c0.719-1.521 1.839-2.641 3.36-3.36h35.28zm-17.04 30.318c0-1.479-0.025-2.959 0.009-4.438 0.023-0.987-0.435-2.265 0.187-2.885 0.621-0.62 1.898-0.169 2.886-0.185 2.017-0.031 1.993-0.012 2.214-2.101 0.071-0.663 0.16-1.332 0.266-1.988 0.312-1.927 0.353-1.887-1.473-1.932-1.341-0.033-3.225 0.603-3.877-0.265-0.678-0.902-0.229-2.681-0.201-4.075 0.03-1.498 0.864-2.311 2.364-2.363 0.958-0.033 1.92-0.033 2.878 0.003 0.568 0.021 0.773-0.165 0.757-0.746-0.035-1.278-0.013-2.559-0.01-3.838 0-0.374 0.009-0.646-0.529-0.722-2.013-0.285-4.016-0.363-6.021 0.02-2.094 0.4-3.646 1.521-4.659 3.417-0.968 1.812-1.067 3.755-1.042 5.746 0.038 2.834 0.01 2.834-2.836 2.834-2.194 0-2.205 0-2.19 2.167 0.008 1.231-0.403 2.848 0.215 3.588 0.648 0.776 2.324 0.168 3.547 0.246 0.04 0.002 0.081 0.006 0.12-0.001 0.956-0.174 1.186 0.241 1.175 1.169-0.049 4.318-0.004 8.637-0.038 12.955-0.006 0.759 0.167 1.053 0.982 1.016 1.436-0.066 2.88-0.068 4.316 0 0.829 0.04 0.988-0.277 0.973-1.024-0.041-2.199-0.013-4.399-0.013-6.598z" fill-rule="evenodd"/>
<path fill="#EC604A" clip-rule="evenodd" d="m136.28 3.74c2.635 1.107 3.646 3.107 3.627 5.934-0.068 10.318-0.049 20.637-0.011 30.955 0.009 2.486-2.037 5.188-5.106 5.155-10.837-0.114-21.677-0.088-32.515-0.011-2.471 0.018-4.655-2.564-4.649-4.592 0.029-10.958-0.001-21.917 0.028-32.875 0.004-1.789 0.931-3.129 2.476-4.026 0.295-0.171 0.663-0.225 0.87-0.54h35.27zm-17.3 23.76c-0.141 0.681-0.304 1.229-0.629 1.727-1.73 2.651-4.797 3.829-7.968 2.791-2.985-0.978-4.822-3.121-5.02-6.596-0.161-2.825 1.052-5.122 3.596-6.568 2.576-1.464 5.114-1.316 7.539 0.332 0.493 0.335 0.74 0.426 1.162-0.046 0.666-0.743 1.396-1.429 2.113-2.126 0.288-0.28 0.369-0.367-0.046-0.719-3.223-2.742-6.855-3.294-10.81-2.106-5.028 1.51-8.775 7.199-7.711 12.784 0.612 3.208 2.165 5.712 4.783 7.561 3.951 2.792 9.316 2.875 13.32-0.123 3.266-2.444 4.359-5.971 4.225-9.926-0.024-0.711-0.374-1.132-1.285-1.095-2.235 0.092-4.476 0.03-6.715 0.03-3.086 0-3.063 0-3.031 3.146 0.007 0.716 0.164 0.976 0.927 0.952 1.84-0.057 3.67-0.018 5.56-0.018zm13.17 2.4c1.729 0 1.729 0 1.732-1.788 0-0.12 0.016-0.242-0.003-0.359-0.13-0.798 0.22-0.998 0.992-0.992 2.145 0.018 2.145-0.018 2.131-2.208 0-0.04-0.006-0.081 0.001-0.12 0.157-0.88-0.269-1.045-1.069-1.031-2.028 0.036-2.028-0.002-2.051-2.049 0-0.04-0.005-0.081 0-0.12 0.114-0.718-0.15-0.953-0.909-0.954-2.367-0.003-2.397-0.041-2.433 2.289-0.011 0.69-0.216 0.94-0.888 0.859-0.315-0.038-0.646 0.037-0.957-0.014-1.224-0.2-1.647 0.239-1.564 1.518 0.12 1.844 0.03 1.85 1.819 1.85 1.571 0 1.571 0 1.572 1.588 0 1.531 0 1.531 1.63 1.531z" fill-rule="evenodd"/>
<path fill="#48BCEB" clip-rule="evenodd" d="m89.48 3.74c1.405 0.826 2.729 1.701 3.183 3.438 0.113 0.434 0.175 0.846 0.175 1.278 0.003 10.837 0.004 21.674 0.001 32.511-0.001 2.727-2.07 4.772-4.81 4.772-10.837 0-21.674-0.047-32.511 0.031-2.894 0.021-4.922-2.565-4.921-4.989 0.006-10.357 0.046-20.714-0.025-31.071-0.02-2.839 0.986-4.851 3.628-5.972 11.76 0.002 23.52 0.002 35.28 0.002zm-24.682 31.062c-3.06 2.239-6.368 3.081-10.06 3.044 0.533 0.477 0.966 0.731 1.432 0.954 4.469 2.142 9.13 2.696 13.956 1.603 4.895-1.109 8.818-3.753 11.731-7.825 2.643-3.695 3.984-7.849 4.013-12.404 0.003-0.524 0.104-0.954 0.557-1.231 1.168-0.712 1.95-1.77 2.81-3.019-1.25 0.26-2.266 0.833-3.531 0.734 1.217-0.972 2.089-2.038 2.628-3.643-0.751 0.34-1.312 0.58-1.86 0.845-1.385 0.669-2.709 0.907-3.989-0.278-0.805-0.746-1.865-1.059-2.916-1.182-4.386-0.516-8.439 3.057-8.093 7.37 0.073 0.905 0.199 1.513-1.278 1.312-5.479-0.746-9.933-3.204-13.534-7.4-1.829 3.582-1.03 6.67 1.834 9.413-1.102 0.292-1.875-0.458-2.887-0.594 0.116 1.764 0.629 3.274 1.66 4.562 1.015 1.267 2.412 2.016 4.15 2.54-1.172 0.107-2.115 0.29-3.214 0.049 1.17 3.145 3.411 4.641 6.591 5.15z" fill-rule="evenodd"/>
<path fill="#fff" clip-rule="evenodd" d="m172.04 66.14c-0.2 0-0.4-0.003-0.6 0-0.875 0.016-1.997-0.29-2.555 0.139-0.597 0.458-0.181 1.638-0.187 2.499-0.004 0.573-0.161 0.817-0.738 0.723-0.039-0.006-0.08-0.002-0.12-0.001-2.491 0.063-2.526 0.063-2.5-2.398 0.008-0.782-0.197-0.991-0.981-0.982-2.462 0.027-2.435-0.008-2.418-2.499 0.004-0.676 0.182-0.871 0.859-0.862 0.819 0.01 1.909 0.399 2.389-0.18 0.397-0.479 0.164-1.527 0.114-2.317-0.042-0.683 0.183-0.855 0.857-0.859 2.49-0.017 2.525-0.044 2.498 2.419-0.009 0.785 0.199 1.044 0.984 0.975 0.793-0.07 1.597-0.015 2.397-0.015 0.01 1.118 0.01 2.238 0.01 3.358z" fill-rule="evenodd"/>
<path fill="#fff" clip-rule="evenodd" d="m114.38 111.5c-3.677 0-7.354 0.035-11.03-0.011-2.958-0.037-4.439-1.868-4.485-4.444-0.081-4.555-0.119-9.114 0.011-13.666 0.088-3.079 1.414-4.313 4.619-4.677 0.119-0.013 0.241-0.015 0.359 0 1.826 0.235 3.251 0.073 3.722-2.237 0.244-1.194 1.578-1.79 2.835-1.824 2.596-0.071 5.195-0.036 7.792-0.017 2.127 0.015 3.071 1.463 3.588 3.223 0.226 0.767 0.587 0.857 1.249 0.87 1.097 0.02 2.183-0.059 3.296 0.188 2.15 0.476 3.466 1.92 3.466 4.133 0.001 4.715-0.067 9.433 0.029 14.146 0.048 2.339-2.051 4.396-4.303 4.342-3.74-0.1-7.46-0.03-11.17-0.03zm-7.14-11.31c-0.158 4 3.287 7.189 7.011 7.222 4.295 0.038 7.333-3.345 7.339-7.244 0.006-3.891-3.044-6.938-6.81-7.188-4.24-0.279-7.85 3.573-7.54 7.208z" fill-rule="evenodd"/>
<path fill="#fff" clip-rule="evenodd" d="m68.238 126.65c1.101 0.621 1.546 1.532 1.234 2.561-1.485 4.894-2.97 9.788-4.47 14.677-0.504 1.645-1.86 2.645-3.565 2.647-4.758 0.008-9.516-0.015-14.274 0.011-2.251 0.012-4.949-2.632-4.411-5.296 0.405-2.007 1.766-3.531 1.947-5.498 0.1-1.084 0.626-1.963 1.1-2.883 0.035-0.067 0.078-0.138 0.083-0.21 0.167-2.243 1.763-4.004 2.157-6.104 0.279-1.485 1-2.649 1.582-3.938 0.295-0.653 0.799-1.017 1.438-1.021 4.563-0.032 9.128-0.03 13.691-0.01 1.493 0.006 2.561 1.495 2.117 2.98-1.563 5.233-3.148 10.459-4.76 15.678-0.529 1.714-1.397 2.208-3.618 2.212-4.318 0.008-8.636-0.004-12.954 0.016-0.303 0.001-0.793-0.262-0.906 0.243-0.114 0.508 0.04 0.958 0.587 1.247 0.499 0.263 0.977 0.43 1.555 0.428 4.878-0.019 9.756-0.028 14.634 0.003 1.164 0.007 1.801-0.501 2.119-1.58 1.47-4.981 2.941-9.963 4.466-14.928 0.129-0.42-0.046-0.87 0.248-1.24zm-10.926 1.17c1.559 0 3.119 0.038 4.676-0.014 1.019-0.034 0.991-0.934 1.075-1.617 0.109-0.89-0.63-0.479-1-0.511-0.714-0.062-1.438-0.018-2.157-0.018-2.158 0-4.318 0.048-6.474-0.019-1.215-0.037-1.268 0.846-1.366 1.591-0.14 1.063 0.758 0.542 1.17 0.562 1.356 0.07 2.717 0.03 4.076 0.03zm4.554 2.16h-3.941c-1.958 0-3.918 0.05-5.874-0.019-1.153-0.041-1.347 0.838-1.393 1.521-0.058 0.858 0.79 0.383 1.187 0.392 2.556 0.052 5.114 0.027 7.672 0.027 1.78 0 1.78 0 2.349-1.92z" fill-rule="evenodd"/>
<path fill="#fff" clip-rule="evenodd" d="m104.31 61.687c-1.943-1.438-2.534-4.146-1.281-6.601 1.139 1.149 2.245 2.282 3.596 3.126 1.826 1.142 3.827 1.778 5.921 2.163 0.846 0.155 1.263-0.072 1.2-1.095-0.131-2.136 0.958-3.696 2.795-4.616 1.916-0.96 3.854-0.79 5.567 0.579 0.476 0.38 0.913 0.42 1.415 0.241 0.54-0.192 1.065-0.427 1.591-0.655 0.167-0.073 0.312-0.327 0.506-0.14 0.195 0.187 0.14 0.448-0.018 0.646-0.412 0.52-0.84 1.026-1.262 1.538-0.086 0.203-0.533 0.056-0.424 0.317 0.059 0.141 0.474 0.189 0.621-0.15 0.548-0.093 1.096-0.186 1.644-0.278l0.204 0.159c-2.088 1.393-2.4 3.506-2.646 5.809-0.237 2.221-1.242 4.272-2.586 6.101-2.056 2.795-4.786 4.595-8.135 5.472-4.011 1.05-7.778 0.376-11.362-1.605-0.095-0.053-0.196-0.094-0.327-0.25 2.747 0.167 5.28-0.389 7.509-2.148-1.043-0.198-2.071-0.462-2.914-1.093-0.848-0.635-1.526-1.439-1.709-2.584h2.254c-2.634-0.979-4.078-2.58-4.182-5.269 0.618 0.064 1.134 0.664 1.814 0.488 0.069 0.231 0.222 0.256 0.419 0.169-0.05-0.109-0.12-0.217-0.19-0.324z" fill-rule="evenodd"/>
<path fill="#fff" clip-rule="evenodd" d="m85.443 183.14c6.274 0.33 11.228 3.053 14.812 8.239 1.214 1.756 0.262 3.144-0.781 4.521-2.509 3.311-5.801 5.574-9.778 6.586-5.632 1.433-10.733 0.133-15.272-3.549-1.519-1.232-2.631-2.742-3.789-4.266-0.827-1.088-0.701-2.261 0.065-3.344 2.793-3.953 6.425-6.703 11.254-7.715 1.147-0.26 2.285-0.52 3.484-0.48zm-6.879 4.01c-1.938 0.855-5.389 4.162-6.097 5.649-0.152 0.319-0.034 0.416 0.104 0.661 0.778 1.375 1.89 2.452 3.042 3.487 3.391 3.044 7.28 4.422 11.886 3.748 4.392-0.643 7.598-3.102 10.363-6.337 0.68-0.795 0.96-1.597 0.045-2.459-0.272-0.257-0.5-0.606-0.742-0.894-1.299-1.546-2.829-2.837-4.742-3.902 1.205 4.861 0.492 8.187-2.44 10.059-3.258 2.08-5.892 2.316-9.041-0.012-3.32-2.46-3.9-5.99-2.378-10.01zm1.602 3.45c-0.18 0.591 0.218 1.062 0.795 1.088 0.517 0.025 0.887-0.348 0.916-1.062 0.075-1.902 1.306-3.109 3.285-3.386 0.567-0.08 1.062-0.155 1.021-0.943-0.04-0.787-0.54-0.754-1.077-0.739-2.445 0.07-4.862 2.47-4.94 5.04z" fill-rule="evenodd"/>
<path fill="#fff" clip-rule="evenodd" d="m30.44 96.339c1.954 1.792 4.086 2.95 6.038 4.357 1.601 1.155 3.25 2.242 4.864 3.379 3.203 2.255 4.792 1.699 7.53-0.125 3.192-2.126 6.287-4.399 9.418-6.616 0.373-0.264 0.708-0.58 1.189-0.977 0 4.432 0.033 8.73-0.021 13.027-0.016 1.24-1.33 2.346-2.621 2.348-7.918 0.013-15.836 0.015-23.754 0-1.419-0.002-2.613-1.072-2.627-2.443-0.043-4.27-0.016-8.54-0.016-12.961z" fill-rule="evenodd"/>
<path fill="#fff" clip-rule="evenodd" d="m44.989 88.94c3.679 0 7.357 0.025 11.036-0.013 1.388-0.014 2.555 0.239 3.205 1.63 0.646 1.38-0.047 2.483-0.741 3.554-1.002 1.545-2.616 2.382-4.082 3.394-2.549 1.758-5.001 3.653-7.655 5.262-1.33 0.807-2.545 0.832-3.901-0.104-3.41-2.354-6.839-4.685-10.196-7.113-1.036-0.75-1.8-1.839-2.16-3.118-0.499-1.772 0.84-3.48 2.737-3.486 3.919-0.022 7.838-0.013 11.757-0.013z" fill-rule="evenodd"/>
<path fill="#fff" clip-rule="evenodd" d="m77.688 51.979c5.52 0.029 10.448 3.764 11.355 9.507 0.443 2.805-0.121 5.329-1.387 7.73-0.316 0.599-0.222 0.766 0.146 1.13 1.535 1.516 3.057 3.046 4.575 4.579 1.518 1.532 1.068 2.756 0.157 3.462-0.944 0.732-2.319 0.607-3.017-0.353-1.321-1.815-3.131-3.157-4.589-4.833-0.482-0.555-0.914-0.295-1.346-0.046-4.383 2.52-9.386 1.979-13.077-1.149-2.747-2.328-4.12-5.342-4.03-8.875 0.136-5.34 3.81-10.035 9.381-10.934 0.66-0.105 1.304-0.245 1.832-0.218zm7.472 11.429c0.105-3.939-3.408-7.383-7.249-7.354-4.197 0.032-7.374 3.281-7.347 7.351 0.027 4.118 3.138 7.239 7.271 7.25 4.086 0.012 7.264-3.145 7.325-7.247z" fill-rule="evenodd"/>
<path fill="#fff" clip-rule="evenodd" d="m64.568 191.77c-0.097 7.384-5.927 13.24-13.492 13.155-7.259-0.082-13.207-5.735-13.117-13.38 0.084-7.2 5.824-13.119 13.641-12.969 7.014 0.14 12.861 5.63 12.968 13.2zm-13.305 9.33c5.106 0.152 9.422-4.407 9.482-9.177 0.066-5.232-4.282-9.41-9.241-9.55-5.42-0.154-9.705 4.467-9.76 9.246-0.059 5.06 4.378 9.56 9.519 9.48z" fill-rule="evenodd"/>
<path fill="#fff" clip-rule="evenodd" d="m47.456 78.866c-3.659-0.02-6.518 0.047-9.372-0.234-1.332-0.131-2.415-0.862-2.843-2.139-0.283-0.845-0.487-1.709-0.484-2.613 0.008-2.317 0.006-4.634 0.001-6.95-0.002-0.785 0.191-1.535 0.413-2.272 0.647-2.151 2.496-2.195 4.249-2.346 0.753-0.065 1.517-0.013 2.276-0.01 1.543 0.005 3.117-0.298 4.609-0.169 3.158 0.272 6.336-0.11 9.47 0.416 1.074 0.18 1.867 0.844 2.211 1.844 0.326 0.942 0.549 1.934 0.539 2.961-0.02 2.077 0.018 4.154-0.018 6.231-0.014 0.817-0.088 1.649-0.266 2.445-0.329 1.477-1.686 2.488-3.258 2.596-2.773 0.187-5.546 0.334-7.527 0.24zm1.027-10.426c0.288-0.82 0.153-1.65 0.207-2.465 0.04-0.599-0.115-0.826-0.772-0.821-0.638 0.004-0.689 0.272-0.686 0.786 0.018 3.035 0.005 6.069 0.015 9.104 0.001 0.242-0.154 0.655 0.246 0.663 0.387 0.007 0.933 0.311 1.155-0.213 0.133-0.313 0.084-0.564 0.441-0.186 0.411 0.437 0.887 0.703 1.494 0.428 0.685-0.31 0.741-0.929 0.739-1.576-0.005-1.477-0.031-2.956 0.01-4.432 0.023-0.836-0.056-1.672-0.834-2.06-0.798-0.395-1.357 0.331-2.015 0.772zm-2.443 3.394v-2.998c0-0.54 0.153-1.055-0.783-1.057-0.904-0.002-0.922 0.392-0.908 1.063 0.033 1.518-0.005 3.038 0.018 4.556 0.009 0.607-0.249 1.089-0.81 1.105-0.724 0.021-0.371-0.648-0.379-0.992-0.041-1.638-0.03-3.277-0.011-4.916 0.006-0.493-0.007-0.808-0.671-0.8-0.629 0.007-0.803 0.183-0.791 0.807 0.039 1.958 0.022 3.917 0.009 5.875-0.003 0.483 0.03 1.018 0.461 1.221 0.5 0.236 1.086 0.209 1.583-0.192 0.204-0.166 0.426-0.815 0.688 0.064 0.122 0.409 0.861 0.172 1.307 0.143 0.497-0.032 0.268-0.496 0.275-0.763 0.029-1.037 0.012-2.077 0.012-3.116zm6.481-0.248c0 0.759-0.055 1.522 0.012 2.274 0.12 1.361 0.829 1.911 2.296 1.88 1.195-0.025 1.866-0.73 2.025-1.958 0.13-1.005-0.44-0.991-1.124-0.919-0.613 0.065-0.171 0.6-0.378 0.841-0.241 0.28-0.214 0.79-0.732 0.835-0.22 0.02-0.424-0.04-0.508-0.223-0.329-0.719-0.207-1.502-0.092-2.218 0.067-0.419 0.699-0.181 1.068-0.187 1.82-0.029 2.129-0.405 1.728-2.21-0.041-0.183-0.167-0.347-0.211-0.53-0.259-1.085-1.013-1.664-2.092-1.591-0.967 0.065-1.931 0.995-1.986 1.97-0.038 0.677-0.007 1.357-0.006 2.036zm-14.161-0.403c0 1.235 0.006 2.471-0.003 3.706-0.003 0.496-0.063 0.899 0.706 0.884 0.697-0.014 0.75-0.295 0.746-0.849-0.021-2.391 0.015-4.782-0.022-7.172-0.012-0.773 0.014-1.354 1.035-1.135 0.66 0.142 0.658-0.281 0.673-0.77 0.015-0.514-0.131-0.697-0.664-0.678-1.074 0.039-2.151 0.001-3.227 0.017-0.427 0.006-0.955-0.217-0.951 0.625 0.003 0.716 0.256 0.917 0.891 0.808 0.708-0.122 0.855 0.214 0.831 0.859-0.048 1.233-0.015 2.469-0.015 3.705z" fill-rule="evenodd"/>
<path fill="#fff" clip-rule="evenodd" d="m154.7 55.708c-0.892 1.211-2.418 1.793-3.162 3.155-3.033-2.473-6.711-2.768-9.942 0.268-2.527 2.374-3.193 6.183-0.98 9.464 2.795 4.144 8.224 4.283 11.32 1.208 0.085-0.084 0.187-0.159 0.25-0.257 0.499-0.773 1.343-1.643 1.014-2.453-0.246-0.603-1.433-0.19-2.196-0.221-1.197-0.048-2.399-0.038-3.598-0.001-0.582 0.018-0.873-0.086-0.821-0.768 0.081-1.067-0.321-2.435 0.205-3.126 0.495-0.651 1.94-0.175 2.966-0.188 2.318-0.029 4.641 0.064 6.955-0.04 1.166-0.052 1.371 0.526 1.409 1.428 0.062 1.502-0.183 2.967-0.625 4.389-1.357 4.359-4.331 6.72-8.845 7.451-4.125 0.668-7.631-0.549-10.445-3.358-3.279-3.273-4.513-8.449-2.214-13.116 2.394-4.86 6.388-6.946 11.599-6.799 2.375 0.067 4.598 0.961 6.486 2.507 0.2 0.163 0.41 0.305 0.62 0.457z" fill-rule="evenodd"/>
<path fill="#fff" clip-rule="evenodd" d="m5.593 188.45c0-4.358-0.001-8.717 0-13.076 0-1.778 0.605-2.37 2.42-2.37h14.515c1.269 0 2.352 0.448 3.248 1.343 1.698 1.695 3.392 3.394 5.089 5.089 0.929 0.928 1.372 2.044 1.37 3.358-0.007 6.278-0.002 12.556-0.004 18.834 0 1.724-0.611 2.335-2.333 2.336-7.318 0.001-14.636 0.001-21.953 0-1.723 0-2.352-0.619-2.352-2.317-0.001-4.4 0-8.8 0-13.19zm2.16 0.03c0 4.12 0.01 8.239-0.01 12.359-0.003 0.636 0.013 0.987 0.854 0.982 6.879-0.041 13.759-0.033 20.638-0.007 0.683 0.002 0.857-0.188 0.853-0.861-0.027-5.359-0.027-10.719 0.001-16.079 0.004-0.686-0.192-0.866-0.863-0.852-1.999 0.043-4 0.025-6 0.012-1.323-0.008-2.021-0.708-2.03-2.034-0.013-1.959-0.042-3.921 0.016-5.879 0.023-0.783-0.194-0.991-0.98-0.982-3.839 0.042-7.679 0.042-11.519 0-0.785-0.009-0.987 0.201-0.98 0.982 0.041 4.12 0.02 8.24 0.02 12.36zm22.023-6.6c0.036-0.094 0.072-0.188 0.108-0.281-1.986-1.993-3.974-3.985-5.958-5.979-0.112-0.113-0.212-0.248-0.394-0.188-0.264 0.086-0.174 0.321-0.174 0.499-0.007 1.792 0.002 3.583-0.009 5.375-0.002 0.371 0.055 0.586 0.508 0.583 1.973-0.01 3.946 0 5.919 0z" fill-rule="evenodd"/>
<path fill="#fff" clip-rule="evenodd" d="m23.062 146.54c-7.109-0.101-12.577-5.485-12.506-12.628 0.067-6.823 5.315-12.342 12.563-12.303 6.845 0.037 12.43 5.399 12.332 12.66-0.091 6.75-5.336 12.14-12.389 12.27zm8.818-12.5c0.059-4.814-4.077-8.784-8.654-8.875-5.081-0.102-9.06 4.061-9.104 8.786-0.047 4.982 4.054 8.931 8.775 8.999 4.882 0.07 9.077-4.12 8.983-8.91z" fill-rule="evenodd"/>
<path fill="#0B9303" clip-rule="evenodd" d="m102.99 159.64c5.529 0.251 9.747 4.424 9.748 10.103 0 5.375-4.28 9.732-9.788 9.782-5.438 0.049-10.058-4.485-9.827-10.363 0.199-5.11 4.337-9.39 9.867-9.52zm0.62 8.4c-2.152 0-3.952-0.007-5.752 0.002-1.399 0.007-1.326 0.02-1.424 1.878-0.062 1.17 0.365 1.527 1.469 1.494 1.809-0.055 3.621-0.015 5.771-0.015-0.89 0.836-1.508 1.452-2.163 2.025-0.98 0.859-0.351 1.514 0.238 2.186 0.617 0.703 1.237 0.919 1.996 0.145 1.735-1.77 3.492-3.519 5.262-5.254 0.529-0.519 0.598-0.971 0.054-1.511-1.814-1.803-3.608-3.628-5.432-5.422-0.655-0.644-1.28-0.424-1.825 0.209-0.534 0.62-1.275 1.215-0.428 2.095 0.66 0.67 1.36 1.3 2.24 2.16z" fill-rule="evenodd"/>
<path fill="#0B9303" clip-rule="evenodd" d="m68.624 169.62c0.118-5.651 4.411-9.966 9.906-9.938 5.516 0.028 9.758 4.467 9.739 9.956-0.019 5.416-4.225 9.89-9.816 9.876-5.387-0.02-9.735-4.23-9.829-9.9zm8.957-1.58c1.06-0.598 1.591-1.313 2.197-1.929 0.904-0.918 0.821-1.096-0.431-2.363-0.71-0.718-1.302-0.721-2.006 0-1.673 1.714-3.363 3.413-5.084 5.08-0.659 0.638-0.687 1.123-0.011 1.772 1.555 1.493 3.058 3.041 4.583 4.565 1.481 1.481 1.608 1.456 3.099-0.057 0.617-0.626 0.593-1.087-0.023-1.684-0.68-0.659-1.278-1.401-1.839-2.025 1.79 0 3.747-0.008 5.704 0.004 0.78 0.005 1.192-0.327 1.175-1.132-0.007-0.359-0.036-0.723 0.006-1.078 0.105-0.884-0.237-1.199-1.143-1.172-1.979 0.06-3.96 0.02-6.227 0.02z" fill-rule="evenodd"/>
<path fill="#fff" clip-rule="evenodd" d="m21.961 94.46c-0.223 1.45-0.497 2.793-0.608 4.149-0.053 0.652-0.324 0.671-0.809 0.657-0.799-0.024-1.604 0.046-2.397-0.022-0.738-0.063-0.936 0.161-0.927 0.913 0.045 3.479-0.003 6.958 0.038 10.436 0.008 0.73-0.156 0.977-0.915 0.926-1.075-0.072-2.161-0.068-3.236-0.001-0.737 0.046-0.937-0.162-0.927-0.914 0.045-3.478-0.002-6.957 0.038-10.436 0.008-0.73-0.157-0.958-0.914-0.931-1.025 0.037-2.409 0.466-2.992-0.156-0.632-0.675-0.069-2.058-0.209-3.114-0.164-1.243 0.264-1.591 1.516-1.539 2.578 0.108 2.583 0.032 2.581-2.546-0.002-2.065 0.213-4.028 1.806-5.615 1.202-1.197 2.718-1.386 4.242-1.645 0.078-0.013 0.16-0.001 0.24-0.001 3.706-0.025 4.068 0.4 3.568 4.06-0.06 0.441-0.226 0.513-0.596 0.505-0.759-0.016-1.52-0.019-2.279-0.001-1.186 0.027-1.905 0.723-1.937 1.887-0.024 0.879 0.046 1.763-0.021 2.637-0.053 0.691 0.254 0.778 0.828 0.763 1.277-0.046 2.555-0.024 3.91-0.024z" fill-rule="evenodd"/>
<path fill="#fff" clip-rule="evenodd" d="m66.812 111.8c0.481-1.513 0.754-2.893 1.349-4.116 0.79-1.623 0.553-3.027-0.141-4.604-2.101-4.78-0.08-10.971 4.044-13.949 2.256-1.629 4.69-2.621 7.441-2.568 5.911 0.113 11.115 4.553 11.925 10.559 0.606 4.497-0.809 8.205-4.121 11.091-3.68 3.207-8.668 4.167-13.376 1.524-0.329-0.185-0.541-0.107-0.862 0.004-1.999 0.7-4.014 1.34-6.259 2.07zm3.353-3.18c0.832-0.281 1.673-0.64 2.55-0.83 0.499-0.108 0.935-0.491 1.601-0.093 4.582 2.735 10.342 1.426 13.331-2.881 3.387-4.88 1.933-11.318-2.536-14.344-4.147-2.809-9.532-2.329-12.965 1.331-2.832 3.018-3.843 6.739-2.124 10.547 1.006 2.229 0.961 4.054 0.034 6.092-0.007 0.02 0.037 0.06 0.109 0.18z" fill-rule="evenodd"/>
<path fill="#fff" clip-rule="evenodd" d="m125 128.18c0 1.359 0.006 2.719-0.002 4.078-0.009 1.712-1.145 2.862-2.844 2.868-2.679 0.009-5.357 0.011-8.036-0.001-1.67-0.008-2.786-1.111-2.794-2.771-0.014-2.799-0.016-5.597 0.001-8.396 0.01-1.652 1.135-2.741 2.817-2.747 2.679-0.01 5.357-0.01 8.036 0 1.686 0.006 2.813 1.169 2.82 2.891 0 1.36-0.01 2.72-0.01 4.08zm-7.02 4.54c0.686 0.03 1.303 0.097 1.268-0.85-0.029-0.79-0.271-1.84 0.128-2.309 0.483-0.566 1.569-0.177 2.39-0.178 0.966-0.001 0.822-0.639 0.833-1.231 0.012-0.617 0.082-1.233-0.864-1.195-0.789 0.031-1.841 0.269-2.306-0.132-0.562-0.484-0.17-1.569-0.177-2.391-0.009-1.077-0.772-0.75-1.354-0.833-0.712-0.101-0.867 0.216-0.834 0.865 0.04 0.789 0.264 1.804-0.126 2.314-0.422 0.553-1.491 0.195-2.267 0.167-0.992-0.035-0.952 0.551-0.964 1.236-0.013 0.721 0.039 1.199 0.994 1.207 2.349 0.021 2.383 0.066 2.358 2.392-0.01 0.76 0.19 1.1 0.92 0.92z" fill-rule="evenodd"/>
<path fill="#fff" clip-rule="evenodd" d="m129.9 144.19c0.253-1.395 0.576-2.75 2.056-3.515 1.666-0.86 3.35-0.757 4.688 0.376 1.056 0.895 1.648 0.8 2.634 0.023 1.459-1.15 3.177-1.277 4.79-0.345 2.071 1.197 2.401 3.724 1.245 5.752-0.72 1.263-1.714 2.275-2.872 3.201-1.365 1.092-2.536 2.431-3.751 3.701-0.491 0.513-0.828 0.564-1.363 0.035-1.837-1.815-3.744-3.559-5.58-5.375-1.06-1.02-1.7-2.29-1.86-3.85z" fill-rule="evenodd"/>
<path fill="#fff" clip-rule="evenodd" d="m137.4 170.97c0 0.878-0.018 1.757 0.005 2.634 0.022 0.83-0.313 1.261-1.181 1.249-1.277-0.017-2.557-0.047-3.831 0.013-0.686 0.033-0.781-0.25-0.763-0.826 0.036-1.116-0.047-2.239 0.03-3.351 0.054-0.786-0.241-0.9-0.941-0.898-2.439 0.01-2.439-0.019-2.439 2.372 0 2.686 0 2.684-2.706 2.686-3.372 0.003-3.059 0.318-3.054-3.08 0.001-0.758 0.139-1.549-0.029-2.269-0.334-1.434 0.605-2.161 1.46-2.899 1.743-1.506 3.566-2.919 5.325-4.408 0.53-0.449 0.831-0.499 1.413 0.021 1.984 1.771 4.024 3.482 6.122 5.115 0.453 0.353 0.605 0.624 0.594 1.125-0.01 0.85 0 1.69 0 2.53z" fill-rule="evenodd"/>
<path fill="#E2A203" clip-rule="evenodd" d="m164.52 170.97c0 0.878-0.018 1.757 0.005 2.635 0.022 0.829-0.313 1.261-1.181 1.25-1.277-0.017-2.557-0.047-3.831 0.013-0.684 0.032-0.782-0.248-0.764-0.826 0.036-1.116-0.047-2.239 0.03-3.351 0.055-0.784-0.239-0.901-0.94-0.898-2.439 0.01-2.439-0.019-2.439 2.372 0 2.686 0 2.684-2.706 2.687-3.373 0.003-3.06 0.318-3.055-3.079 0.001-0.758 0.138-1.549-0.029-2.269-0.333-1.433 0.604-2.162 1.459-2.9 1.744-1.505 3.566-2.918 5.325-4.407 0.53-0.448 0.831-0.5 1.414 0.02 1.983 1.771 4.024 3.482 6.122 5.115 0.453 0.352 0.606 0.623 0.595 1.125-0.01 0.85 0 1.69 0 2.53z" fill-rule="evenodd"/>
<path fill="#2C2C2C" clip-rule="evenodd" d="m38.083 168.38c-1.959 0-3.917-0.017-5.876 0.007-1.086 0.013-1.541-0.484-1.535-1.558 0.021-3.598 0.024-7.195-0.003-10.792-0.007-0.964 0.368-1.416 1.338-1.336 0.522 0.042 0.877 0.023 0.859-0.719-0.023-0.983 0.82-1.666 1.854-1.682 1.099-0.017 1.698 0.472 1.693 1.611-0.003 0.755 0.303 0.852 0.908 0.796 0.396-0.037 0.802-0.041 1.198 0 0.845 0.087 1.374 0.033 1.334-1.118-0.03-0.856 0.71-1.299 1.627-1.297 0.915 0.002 1.632 0.431 1.631 1.3-0.002 0.992 0.34 1.238 1.213 1.11 0.93-0.136 1.21 0.523 1.217 1.21 0.039 3.757 0.048 7.515-0.006 11.271-0.011 0.795-0.608 1.208-1.457 1.201-1.998-0.01-3.996 0-5.995 0zm-1.602-7.13c-1.012-0.29-1.682-0.141-1.5 1.189 0.116 0.838-0.306 1.916 1.278 1.644 0.831-0.143 1.896 0.303 1.649-1.282-0.143-0.92 0.26-2.1-1.427-1.55zm3.414-0.02c-1.035-0.196-1.744-0.099-1.557 1.229 0.12 0.852-0.291 1.915 1.3 1.629 0.842-0.151 1.887 0.289 1.636-1.305-0.148-0.94 0.212-2.08-1.379-1.55zm-3.607 5.91c0.977 0.139 1.772 0.234 1.632-1.191-0.09-0.912 0.015-1.63-1.27-1.431-0.825 0.128-1.836-0.338-1.696 1.251 0.09 1.03 0.066 1.77 1.334 1.37zm3.644-2.55c-0.927-0.133-1.765-0.279-1.61 1.17 0.096 0.891-0.052 1.656 1.256 1.439 0.809-0.134 1.862 0.376 1.704-1.238-0.096-1-0.019-1.8-1.35-1.37zm-3.392-6.49c-1.003-0.182-1.688-0.145-1.583 1.216 0.074 0.961 0.08 1.581 1.304 1.4 0.836-0.124 1.813 0.308 1.674-1.282-0.095-1.09-0.185-1.7-1.395-1.34zm3.216 2.54c0.98 0.26 1.625 0.17 1.525-1.186-0.069-0.951-0.049-1.595-1.292-1.41-0.834 0.124-1.813-0.308-1.681 1.272 0.089 1.07 0.148 1.73 1.448 1.33zm-5.291 2.08c0.177-0.942 0.244-1.716-1.175-1.58-0.912 0.087-1.63-0.016-1.431 1.269 0.127 0.825-0.339 1.836 1.251 1.696 1.024-0.09 1.775-0.07 1.355-1.39zm7.3-0.21c-0.181 0.996-0.171 1.703 1.207 1.591 0.948-0.078 1.595-0.051 1.41-1.293-0.124-0.834 0.305-1.812-1.272-1.681-1.07 0.09-1.727 0.15-1.345 1.38zm-8.609 4.62c1.108 0.325 1.439-0.09 1.403-1.227-0.032-0.992-0.126-1.475-1.316-1.407-0.986 0.056-1.503 0.128-1.398 1.321 0.082 0.93 0.007 1.74 1.311 1.32zm11.155-1.23c0.325-1.109-0.09-1.44-1.227-1.403-0.991 0.032-1.475 0.125-1.407 1.316 0.056 0.985 0.128 1.503 1.321 1.398 0.925-0.09 1.728-0.01 1.313-1.32zm-11.067-7.79c-1.108-0.325-1.439 0.091-1.403 1.228 0.032 0.991 0.126 1.475 1.317 1.407 0.985-0.056 1.503-0.129 1.397-1.322-0.081-0.93-0.007-1.73-1.311-1.32zm9.858-0.01c-0.953-0.175-1.518-0.082-1.425 1.144 0.074 0.979 0.028 1.593 1.344 1.508 1.021-0.066 1.447-0.205 1.377-1.349-0.06-0.97-0.078-1.69-1.296-1.3zm-9.062-3.15c0 0.41 0.018 0.727-0.004 1.042-0.029 0.417 0.056 0.636 0.563 0.643 0.536 0.008 0.7-0.176 0.647-0.679-0.033-0.313 0.086-0.67-0.026-0.938-0.211-0.503 0.677-1.527-0.597-1.5-1.239 0.04-0.217 1.09-0.583 1.44zm6.888 0.1c0.375 0.48-0.486 1.499 0.511 1.513 1.064 0.015 0.452-1.025 0.473-1.549 0.019-0.481 0.515-1.469-0.448-1.455-1.023 0.01-0.167 1.02-0.536 1.49z" fill-rule="evenodd"/>
<path fill="#C102C1" clip-rule="evenodd" d="m52.795 153.5c1.707-0.415 3.132 0.5 4.465 1.936 1.482 1.596 3.157 3.01 4.721 4.532 1.192 1.159 1.169 1.736-0.029 2.94-1.127 1.132-2.23 2.291-3.399 3.378-0.738 0.687-1.292 1.055-2.27 0.011-1.829-1.952-3.754-3.815-5.664-5.689-0.828-0.813-1.314-1.716-1.23-2.914 0.059-0.835 0.007-1.677 0.013-2.516 0.009-1.361 0.305-1.663 1.637-1.677h1.756zm-0.385 3.86c0.446 0.054 0.866-0.099 0.844-0.9-0.018-0.673-0.167-1.212-0.919-1.263-0.724-0.049-1.179 0.375-1.242 1.085-0.066 0.75 0.398 1.06 1.317 1.08z" fill-rule="evenodd"/>
<path fill="#2C2C2C" clip-rule="evenodd" d="m118.56 153.83c-1.279 0-2.56-0.03-3.837 0.01-0.968 0.03-1.432-0.375-1.326-1.34 0.083-0.756-0.046-1.259-0.974-1.07-1.008 0.205-1.321-0.217-1.211-1.208 0.091-0.829 0.08-1.682 0.004-2.515-0.109-1.19 0.563-1.816 1.548-1.99 0.651-0.114 0.636-0.378 0.631-0.838-0.014-1.159 0.013-2.319-0.01-3.478-0.017-0.828 0.307-1.262 1.178-1.256 1.878 0.015 3.758-0.03 5.635 0.016 1.61 0.039 3.568 2.148 3.488 3.826-0.052 1.092 0.075 1.796 1.37 1.958 0.796 0.1 1.043 0.861 1.053 1.621 0.011 0.999-0.06 2.003 0.022 2.996 0.067 0.808-0.276 0.965-0.954 0.87-0.981-0.138-1.701-0.034-1.486 1.292 0.13 0.801-0.399 1.121-1.173 1.111-1.32-0.01-2.64 0-3.96 0zm-0.33-6.96h2.019c2.271 0 2.213-0.002 2.287-2.3 0.03-0.943-0.268-1.185-1.127-1.071-0.468 0.062-1.152 0.076-1.03-0.612 0.305-1.721-0.744-1.603-1.856-1.544-0.758 0.04-1.519 0.008-2.278 0.008-1.656 0-1.665 0-1.653 1.705 0.008 1.232-0.432 2.899 0.192 3.58 0.72 0.78 2.41 0.13 3.45 0.23zm0.32 3.36c-1.04 0-2.086 0.075-3.117-0.02-1.132-0.104-0.835 0.649-0.835 1.219s-0.297 1.278 0.833 1.226c1.955-0.091 3.92-0.088 5.875 0 1 0.045 1.247-0.228 1.246-1.226 0-0.997-0.242-1.327-1.246-1.221-0.9 0.1-1.83 0.02-2.75 0.02zm5.69-3.37c-0.274 0.074-0.542 0.216-0.531 0.613 0.01 0.375 0.221 0.593 0.596 0.593s0.592-0.218 0.594-0.593c0-0.38-0.22-0.57-0.66-0.61z" fill-rule="evenodd"/>
<path fill="#FFCF06" clip-rule="evenodd" d="m87.98 134.28c-0.096 0.251-0.231 0.488-0.778 0.178-1.072-0.608-2.204-1.108-3.305-1.666-0.506-0.256-0.872-0.359-1.464 0.054-0.968 0.675-2.135 1.059-3.186 1.626-0.69 0.373-0.835-0.082-0.779-0.525 0.138-1.069 0.355-2.131 0.607-3.181 0.181-0.753 0.109-1.349-0.507-1.902-0.859-0.772-1.642-1.63-2.472-2.436-0.492-0.477-0.293-0.796 0.25-0.888 1.228-0.208 2.465-0.402 3.706-0.469 0.572-0.031 0.809-0.242 1.029-0.7 0.534-1.114 1.128-2.199 1.657-3.315 0.125-0.265 0.207-0.559 0.519-0.546 0.302 0.012 0.385 0.31 0.505 0.572 0.32 0.702 0.835 1.34 1.028 2.068 0.432 1.627 1.584 2.051 3.049 2.137 0.739 0.044 1.473 0.176 2.212 0.225 0.278 0.019 0.47 0.149 0.582 0.341 0.157 0.271-0.115 0.432-0.273 0.592-0.757 0.767-1.479 1.575-2.298 2.271-0.779 0.661-0.858 1.395-0.641 2.317 0.238 1.03 0.358 2.07 0.559 3.26z" fill-rule="evenodd"/>
<path fill="#fff" clip-rule="evenodd" d="m11.505 164.6c1.684-1.294 1.007-2.098-0.137-3.303-1.638-1.725-0.886-4.379 1.291-5.63 2.919-1.677 6.397-1.599 8.978 0.536 2.104 1.74 2.044 4.585-0.864 6.41-1.051 0.66-2.239 1.12-3.524 0.956-1.471-0.188-2.75 0.28-4.003 0.95-0.454 0.23-0.941 0.38-1.741 0.07z" fill-rule="evenodd"/>
<path fill="#2C2C2C" clip-rule="evenodd" d="m140.08 110.78c-1.278 0-2.557 0.042-3.833-0.01-1.684-0.068-2.285-0.93-2.313-2.332-0.023-1.2 0.134-2.47 0.735-3.604 0.68-1.281 1.907-1.729 3.102-0.998 1.503 0.919 2.953 0.964 4.515 0.121 1.829-0.987 2.884-0.439 3.625 1.607 0.327 0.904 0.465 1.794 0.452 2.738-0.022 1.593-0.836 2.444-2.451 2.472-1.28 0.02-2.56 0-3.84 0z" fill-rule="evenodd"/>
<path fill="#fff" clip-rule="evenodd" d="m17.23 74.78c-3.034 0-6.067 0.003-9.102-0.002-1.39-0.002-1.451-0.091-1.449-1.928 0.001-1.544 0.104-1.668 1.469-1.669 6.147-0.003 12.294-0.003 18.442 0 1.391 0.001 1.451 0.091 1.449 1.928-0.002 1.544-0.104 1.667-1.469 1.669-3.112 0.005-6.226 0.002-9.34 0.002z" fill-rule="evenodd"/>
<path fill="#fff" clip-rule="evenodd" d="m17.354 56.78c3.074 0 6.147-0.003 9.221 0.001 1.385 0.002 1.464 0.106 1.464 1.793 0 1.695-0.08 1.803-1.454 1.804-6.147 0.003-12.294 0.003-18.442 0-1.385-0.001-1.464-0.106-1.464-1.793 0-1.695 0.08-1.802 1.454-1.804 3.075-0.004 6.148-0.001 9.221-0.001z" fill-rule="evenodd"/>
<path fill="#fff" clip-rule="evenodd" d="m17.486 63.98c3.034 0 6.067-0.003 9.101 0.002 1.394 0.002 1.455 0.09 1.453 1.924-0.001 1.549-0.102 1.672-1.465 1.673-6.147 0.003-12.295 0.003-18.442 0-1.395-0.001-1.455-0.091-1.453-1.924 0.001-1.549 0.102-1.671 1.465-1.673 3.113-0.005 6.227-0.002 9.341-0.002z" fill-rule="evenodd"/>
<path fill="#fff" clip-rule="evenodd" d="m98.646 128.72c-0.834-0.805-1.636-1.632-2.497-2.392-0.815-0.719-0.297-1.257 0.192-1.768 0.583-0.608 1.196-1.435 2.159-0.665 0.712 0.569 1.343 1.251 1.946 1.939 0.436 0.498 0.715 0.443 1.125-0.021 0.553-0.627 1.18-1.188 1.769-1.783 0.907-0.917 1.54-0.221 2.172 0.377 0.635 0.599 1.204 1.187 0.24 2.03-0.809 0.708-1.533 1.512-2.355 2.335 0.782 0.778 1.571 1.539 2.333 2.328 0.59 0.611 0.747 1.162-0.013 1.872-1.519 1.422-2.237 1.396-3.467-0.339-0.022-0.031-0.025-0.074-0.047-0.106-1.012-1.484-1.321-1.499-2.439-0.118-0.073 0.09-0.139 0.188-0.199 0.286-0.441 0.719-1.025 1.524-1.855 1.405-0.836-0.12-1.367-1.038-1.893-1.705-0.351-0.446 0.13-0.953 0.475-1.314 0.746-0.79 1.522-1.54 2.357-2.37z" fill-rule="evenodd"/>
<path fill="#2C2C2C" clip-rule="evenodd" d="m157.23 97.1c4.121 0.237 6.802 2.77 6.841 6.845 0.038 3.921-2.841 6.814-6.733 6.782-4.275-0.035-6.839-2.819-6.82-6.917 0.02-3.7 2.25-6.329 6.71-6.7zm4.97 6.93c0.156-2.553-2.378-5.005-4.828-5.026-2.87-0.025-4.918 2.267-4.999 4.729-0.09 2.746 2.185 5.058 4.818 5.143 2.56 0.09 5.07-2.39 5.01-4.84z" fill-rule="evenodd"/>
<path fill="#E2A203" clip-rule="evenodd" d="m161.16 161.14v-0.855c0.003-1.939 0.807-2.527 2.715-1.957 0.429 0.128 0.705 0.357 0.665 0.926-0.07 0.994 0.1 2.015-0.046 2.992-0.24 1.61 0.55 2.494 1.786 3.294 0.515 0.333 1.469 0.72 0.863 1.706-0.44 0.717-0.877 0.992-1.706 0.281-2.58-2.213-5.256-4.316-7.868-6.493-0.383-0.319-0.555-0.365-0.961-0.019-1.725 1.47-3.501 2.88-5.25 4.323-1.028 0.848-2.056 1.697-3.054 2.579-0.603 0.533-0.779-0.12-1.006-0.369-0.332-0.364-0.855-0.783-0.178-1.35 1.175-0.982 2.31-2.013 3.489-2.991 1.714-1.422 3.467-2.799 5.175-4.228 0.927-0.776 1.65-0.733 2.628 0.011 0.9 0.69 1.62 1.59 2.75 2.16z" fill-rule="evenodd"/>
<path fill="#fff" clip-rule="evenodd" d="m134.04 161.07v-1.185c0.001-1.593 0.001-1.593 1.559-1.599 1.801-0.006 1.801-0.006 1.801 1.718 0 0.799 0.114 1.619-0.024 2.394-0.277 1.552 0.683 2.29 1.701 3.118 0.446 0.362 1.461 0.515 0.984 1.533-0.523 1.116-0.818 1.191-1.752 0.428-2.602-2.127-5.223-4.232-7.791-6.399-0.499-0.42-0.709-0.34-1.149 0.035-1.695 1.445-3.439 2.83-5.158 4.247-1.028 0.849-2.052 1.702-3.054 2.58-0.541 0.474-0.708-0.102-0.927-0.329-0.349-0.362-0.902-0.786-0.279-1.343 1.171-1.048 2.357-2.081 3.566-3.084 1.683-1.397 3.428-2.722 5.078-4.157 0.961-0.835 1.812-0.722 2.732-0.026 0.89 0.69 1.54 1.67 2.71 2.08z" fill-rule="evenodd"/>
<path fill="#fff" clip-rule="evenodd" d="m86.229 151.89c-0.481 0.451-1.076 1.162-1.818 1.649-0.493 0.323-0.804-0.35-1.122-0.664-1.959-1.935-3.884-3.904-5.86-5.82-0.508-0.493-0.594-0.758-0.031-1.3 2.07-1.991 4.095-4.03 6.1-6.087 0.539-0.552 0.889-0.599 1.445-0.018 1.845 1.927 1.747 1.346 0.018 3.126-0.945 0.974-1.884 1.957-2.889 2.866-0.6 0.542-0.676 0.884-0.032 1.475 1.292 1.186 2.5 2.464 3.735 3.711 0.214 0.21 0.542 0.37 0.454 1.06z" fill-rule="evenodd"/>
<path fill="#2C2C2C" clip-rule="evenodd" d="m92.301 151.36c-0.044-0.469 0.324-0.585 0.504-0.826 0.449-0.599 0.63-1.141-0.112-1.696-2.465-1.842-2.113-4.944 0.82-6.709 2.639-1.588 6.377-1.233 8.544 0.72 2.275 2.052 1.72 4.786-0.518 6.321-1.589 1.091-3.451 1.598-5.411 1.165-0.482-0.107-0.713 0.157-1.029 0.31-0.887 0.45-1.747 0.96-2.799 0.73zm4.914-2.12c1.101 0.212 2.092-0.136 2.962-0.592 2.066-1.083 3.128-2.889 1.394-4.717-1.954-2.06-5.427-2.222-7.792-0.585-0.896 0.621-1.531 1.402-1.542 2.66-0.016 1.805 2.099 1.925 2.457 3.375 0.013 0.052 0.117 0.087 0.184 0.118 0.033 0.015 0.1 0.018 0.115-0.002 0.68-0.88 1.543 0.13 2.223-0.26z" fill-rule="evenodd"/>
<path fill="#2C2C2C" clip-rule="evenodd" d="m140.07 103.82c-1.825 0.321-3.38-1.841-3.308-3.276 0.107-2.118 1.537-3.381 3.379-3.427 1.534-0.038 3.47 1.407 3.365 3.439-0.1 2.02-1.32 3.27-3.43 3.27z" fill-rule="evenodd"/>
<path fill="#fff" clip-rule="evenodd" d="m16.169 164.87c4.656 0.086 8.31-2.326 8.132-6.749 2.568 1.305 3.153 4.114 0.591 6.28-0.83 0.702-0.592 1.077-0.029 1.667 0.208 0.218 0.72 0.353 0.442 0.832-0.273 0.471-0.749 0.103-0.914 0.009-1.844-1.044-3.915-0.86-5.891-1.156-0.846-0.13-1.545-0.6-2.331-0.88z" fill-rule="evenodd"/>
<path fill="#2C2C2C" clip-rule="evenodd" d="m96.554 151.43c4.592 0.4 8.797-2.4 7.98-6.81 2.984 1.47 3.249 4.476 0.582 6.58-0.772 0.609-0.177 1.107 0.17 1.583 0.209 0.288 0.602 0.543 0.382 0.907-0.247 0.409-0.612-0.034-0.811-0.131-2.004-0.975-4.182-0.927-6.31-1.205-0.635-0.08-1.302-0.36-1.986-0.93z" fill-rule="evenodd"/>
<path fill="#fff" clip-rule="evenodd" d="m133.43 126c1.236 0 2.472 0.01 3.707-0.007 0.346-0.004 0.651 0.058 0.791 0.379 0.149 0.342-0.071 0.596-0.314 0.824-1.271 1.186-2.386 2.535-3.803 3.572-0.297 0.218-0.451 0.353-0.778 0.037-1.25-1.208-2.528-2.387-3.802-3.569-0.274-0.255-0.533-0.524-0.336-0.914 0.162-0.319 0.495-0.331 0.829-0.327 1.23 0.02 2.47 0.01 3.7 0.01z" fill-rule="evenodd"/>
<path fill="#fff" clip-rule="evenodd" d="m111.23 190c-1.275 0-2.551-0.011-3.826 0.008-0.309 0.004-0.575-0.072-0.71-0.322-0.177-0.329 0.154-0.492 0.337-0.677 1.207-1.217 2.446-2.401 3.62-3.648 0.464-0.494 0.713-0.389 1.124 0.041 1.127 1.181 2.31 2.31 3.449 3.481 0.216 0.223 0.704 0.375 0.44 0.839-0.215 0.38-0.62 0.274-0.967 0.276h-3.46z" fill-rule="evenodd"/>
<path fill="#fff" clip-rule="evenodd" d="m53.96 56.865c0 0.998 0.016 1.996-0.011 2.993-0.007 0.265 0.215 0.725-0.301 0.741-0.444 0.014-1.016 0.243-1.31-0.178-0.191-0.273-0.005-0.453-0.446-0.134-0.407 0.293-0.92 0.876-1.67 0.39-0.67-0.436-0.576-1.03-0.579-1.633-0.008-1.796 0.02-3.592-0.016-5.387-0.011-0.576 0.157-0.739 0.732-0.738 0.574 0 0.748 0.159 0.734 0.737-0.038 1.596-0.035 3.193 0.005 4.788 0.008 0.319-0.339 0.923 0.312 0.944 0.582 0.018 0.876-0.429 0.873-1.039-0.009-1.477 0.059-2.957-0.025-4.428-0.052-0.901 0.296-1.042 1.08-1.006 0.569 0.026 0.643 0.245 0.631 0.717-0.027 1.078-0.009 2.156-0.009 3.233z" fill-rule="evenodd"/>
<path fill="#fff" clip-rule="evenodd" d="m44.109 50.148c-0.564 1.796-1.104 3.558-1.672 5.31-0.465 1.437-0.191 2.909-0.211 4.362-0.01 0.736-0.277 0.831-0.904 0.82-0.582-0.01-0.889-0.099-0.809-0.777 0.378-3.208-0.545-6.167-1.78-9.061-0.123-0.289-0.32-0.7 0.153-0.703 0.457-0.003 1.134-0.432 1.389 0.351 0.38 1.169 0.719 2.352 1.102 3.618 0.269-0.927 0.631-1.79 0.753-2.686 0.166-1.216 0.755-1.576 1.979-1.234z" fill-rule="evenodd"/>
<path fill="#fff" clip-rule="evenodd" d="m48.439 56.705c0 0.679 0.049 1.361-0.011 2.035-0.114 1.277-1.042 2.141-2.194 2.121-1.098-0.02-2.025-0.865-2.095-2.091-0.079-1.393-0.063-2.795-0.004-4.189 0.042-0.998 1.18-1.912 2.189-1.879 1.042 0.033 2.048 0.949 2.107 1.969 0.041 0.675 0.009 1.355 0.008 2.034zm-2.876 0.073c0 0.678-0.011 1.355 0.003 2.033 0.01 0.445 0.287 0.608 0.707 0.611 0.418 0.003 0.714-0.154 0.719-0.598 0.016-1.355 0.014-2.711 0.002-4.066-0.003-0.457-0.351-0.801-0.708-0.807-0.362-0.006-0.705 0.342-0.719 0.792-0.021 0.679-0.005 1.357-0.004 2.035z" fill-rule="evenodd"/>
<path fill="#fff" clip-rule="evenodd" d="m156.16 143.49c-0.579 0.047-0.71 0.328-0.9 0.515-0.995 0.979-1.987 1.961-2.96 2.961-0.392 0.403-0.707 0.545-1.193 0.09-0.556-0.521-0.077-0.741 0.207-1.027 1.321-1.331 2.675-2.628 3.961-3.992 0.494-0.524 0.761-0.435 1.209 0.034 1.295 1.355 2.644 2.658 3.962 3.991 0.249 0.251 0.721 0.45 0.228 0.939-0.427 0.424-0.762 0.469-1.195 0.022-0.999-1.031-2.029-2.032-3.031-3.059-0.16-0.15-0.25-0.39-0.29-0.46z" fill-rule="evenodd"/>
<path fill="#fff" clip-rule="evenodd" d="m151.17 132.32c-0.179-0.159-0.328-0.277-0.462-0.411-1.412-1.408-2.821-2.819-4.233-4.227-0.263-0.262-0.535-0.48-0.114-0.863 0.375-0.341 0.679-0.514 1.104-0.079 0.975 0.999 2.005 1.945 2.944 2.976 0.541 0.594 0.89 0.695 1.474 0.035 0.896-1.014 1.91-1.924 2.853-2.898 0.398-0.412 0.719-0.52 1.193-0.068 0.559 0.532 0.047 0.748-0.229 1.026-1.318 1.333-2.647 2.655-3.973 3.98-0.16 0.16-0.33 0.32-0.55 0.52z" fill-rule="evenodd"/>
<path fill="#fff" clip-rule="evenodd" d="m146.17 123.54c0.571-1.133 1.157-0.928 1.839-0.102 0.507 0.614 1.119 1.141 1.685 1.707 1.465 1.465 1.465 1.465 2.972-0.042 0.679-0.679 1.392-1.327 2.024-2.046 0.447-0.508 0.69-0.375 1.134 0.024 0.586 0.527 0.06 0.711-0.193 0.968-1.262 1.282-2.563 2.528-3.801 3.833-0.476 0.501-0.752 0.634-1.303 0.046-1.42-1.52-2.93-2.96-4.36-4.39z" fill-rule="evenodd"/>
<path fill="#fff" clip-rule="evenodd" d="m160.86 150.29c-0.614 1.234-1.191 0.828-1.862 0.087-0.831-0.917-1.763-1.744-2.608-2.649-0.398-0.428-0.648-0.417-1.042 0.004-0.846 0.905-1.772 1.735-2.609 2.648-0.668 0.729-1.252 1.205-1.852-0.134 1.429-1.414 2.951-2.881 4.422-4.397 0.446-0.46 0.688-0.453 1.128 0.004 1.44 1.5 2.93 2.95 4.42 4.44z" fill-rule="evenodd"/>
<path fill="#fff" clip-rule="evenodd" d="m126.18 56.761c0.072-0.231 0.224-0.258 0.423-0.167-0.073 0.108-0.146 0.217-0.219 0.326-0.06-0.053-0.13-0.106-0.2-0.159z" fill-rule="evenodd"/>
<path fill="#FEFEFE" clip-rule="evenodd" d="m26.84 34.058c0 2.199-0.028 4.399 0.016 6.597 0.015 0.748-0.145 1.064-0.973 1.024-1.436-0.069-2.88-0.067-4.316 0-0.815 0.038-0.988-0.256-0.982-1.016 0.033-4.318-0.011-8.637 0.038-12.955 0.011-0.928-0.219-1.343-1.175-1.169-0.039 0.007-0.08 0.003-0.12 0.001-1.223-0.077-2.898 0.531-3.547-0.246-0.619-0.74-0.207-2.356-0.215-3.588-0.015-2.167-0.004-2.167 2.19-2.167 2.846 0 2.874 0 2.836-2.834-0.026-1.991 0.073-3.934 1.042-5.746 1.012-1.896 2.564-3.017 4.659-3.417 2.006-0.383 4.008-0.305 6.021-0.02 0.538 0.077 0.529 0.349 0.529 0.722-0.003 1.28-0.025 2.56 0.01 3.838 0.016 0.581-0.189 0.767-0.757 0.746-0.958-0.037-1.92-0.036-2.878-0.003-1.5 0.052-2.334 0.865-2.364 2.363-0.028 1.394-0.477 3.173 0.201 4.075 0.652 0.868 2.536 0.232 3.877 0.265 1.825 0.045 1.785 0.005 1.473 1.932-0.106 0.656-0.195 1.325-0.266 1.988-0.222 2.089-0.198 2.069-2.214 2.101-0.988 0.016-2.265-0.435-2.886 0.185-0.622 0.62-0.163 1.897-0.187 2.885-0.038 1.479-0.012 2.959-0.012 4.439z" fill-rule="evenodd"/>
<path fill="#FEFEFE" clip-rule="evenodd" d="m118.98 27.5c-1.891 0-3.722-0.039-5.549 0.019-0.763 0.023-0.919-0.236-0.927-0.952-0.032-3.146-0.055-3.146 3.031-3.146 2.239 0 4.48 0.062 6.715-0.03 0.911-0.038 1.261 0.384 1.285 1.095 0.134 3.955-0.959 7.482-4.225 9.926-4.004 2.998-9.37 2.915-13.32 0.123-2.618-1.849-4.171-4.353-4.783-7.561-1.064-5.585 2.683-11.273 7.711-12.784 3.955-1.188 7.587-0.636 10.81 2.106 0.415 0.353 0.334 0.439 0.046 0.719-0.716 0.697-1.447 1.383-2.113 2.126-0.422 0.472-0.669 0.381-1.162 0.046-2.425-1.647-4.963-1.795-7.539-0.332-2.544 1.446-3.757 3.743-3.596 6.568 0.197 3.475 2.034 5.618 5.02 6.596 3.17 1.038 6.237-0.14 7.968-2.791 0.32-0.499 0.49-1.047 0.63-1.728z" fill-rule="evenodd"/>
<path fill="#FEFEFE" clip-rule="evenodd" d="m132.15 29.9c-1.627 0-1.627 0-1.628-1.532 0-1.588 0-1.588-1.572-1.588-1.789 0-1.699-0.006-1.819-1.85-0.083-1.279 0.341-1.718 1.564-1.518 0.311 0.051 0.642-0.024 0.957 0.014 0.671 0.081 0.877-0.169 0.888-0.859 0.036-2.329 0.066-2.292 2.433-2.289 0.759 0.001 1.023 0.236 0.909 0.954-0.006 0.039-0.001 0.08 0 0.12 0.023 2.047 0.023 2.084 2.051 2.049 0.8-0.014 1.226 0.151 1.069 1.031-0.007 0.039-0.001 0.08-0.001 0.12 0.014 2.191 0.014 2.227-2.131 2.208-0.772-0.006-1.122 0.194-0.992 0.992 0.019 0.117 0.003 0.239 0.003 0.359 0 1.789 0 1.789-1.73 1.789z" fill-rule="evenodd"/>
<path fill="#FEFEFE" clip-rule="evenodd" d="m64.798 34.802c-3.18-0.509-5.421-2.005-6.59-5.149 1.099 0.241 2.042 0.058 3.214-0.049-1.738-0.524-3.135-1.273-4.15-2.54-1.031-1.288-1.544-2.798-1.66-4.562 1.011 0.137 1.785 0.886 2.887 0.594-2.864-2.742-3.663-5.831-1.834-9.413 3.602 4.196 8.055 6.654 13.534 7.4 1.477 0.201 1.352-0.407 1.278-1.312-0.347-4.313 3.707-7.886 8.093-7.37 1.05 0.123 2.11 0.437 2.916 1.182 1.279 1.185 2.604 0.947 3.989 0.278 0.548-0.265 1.109-0.505 1.86-0.845-0.539 1.605-1.412 2.671-2.628 3.643 1.265 0.1 2.281-0.474 3.531-0.734-0.86 1.249-1.642 2.307-2.81 3.019-0.454 0.277-0.554 0.707-0.557 1.231-0.029 4.555-1.37 8.709-4.013 12.404-2.913 4.072-6.836 6.716-11.731 7.825-4.827 1.092-9.487 0.538-13.957-1.604-0.466-0.223-0.899-0.478-1.432-0.954 3.692 0.037 7-0.805 10.06-3.044z" fill-rule="evenodd"/>
<path fill="#fff" clip-rule="evenodd" d="m124.54 57.039c-0.147 0.339-0.563 0.291-0.621 0.15-0.109-0.261 0.338-0.114 0.424-0.317 0.07 0.056 0.13 0.112 0.2 0.167z" fill-rule="evenodd"/>
<path fill="#fff" clip-rule="evenodd" d="m104.31 61.687c0.071 0.108 0.142 0.215 0.212 0.323-0.197 0.086-0.35 0.062-0.419-0.169 0.07-0.052 0.14-0.103 0.21-0.154z" fill-rule="evenodd"/>
<path fill="#fff" clip-rule="evenodd" d="m114.48 104.78c-2.652 0.002-4.75-1.965-4.827-4.529-0.071-2.345 2.295-4.89 4.66-4.76 2.643 0.145 4.617 1.922 4.705 4.613 0.06 2.08-2.04 4.95-4.54 4.68z" fill-rule="evenodd"/>
<path fill="#fff" clip-rule="evenodd" d="m46.809 191.78c0-1.755-0.011-3.511 0.004-5.266 0.01-1.119 0.911-1.722 1.828-1.184 3.056 1.793 6.099 3.611 9.126 5.451 0.983 0.597 1.015 1.342 0.078 1.909-3.063 1.854-6.143 3.682-9.239 5.48-0.881 0.512-1.778-0.076-1.791-1.125-0.022-1.75-0.006-3.5-0.006-5.26z" fill-rule="evenodd"/>
<path fill="#fff" clip-rule="evenodd" d="m49.879 71.847c0 0.68-0.002 1.359 0 2.039 0.001 0.374-0.176 0.618-0.547 0.643-0.441 0.03-0.649-0.229-0.65-0.657-0.002-1.399 0-2.798-0.001-4.197 0-0.373 0.176-0.618 0.547-0.643 0.441-0.03 0.648 0.229 0.65 0.658 0.003 0.718 0.001 1.438 0.001 2.157z" fill-rule="evenodd"/>
<path fill="#fff" clip-rule="evenodd" d="m54.802 70.935c-0.524 0.055-0.919 0.05-0.865-0.701 0.046-0.63 0.227-1.189 0.854-1.176 0.725 0.015 0.796 0.698 0.856 1.308 0.077 0.769-0.465 0.536-0.845 0.569z" fill-rule="evenodd"/>
<path fill="#fff" clip-rule="evenodd" d="m18.792 188.6c-1.837 0-3.676-0.033-5.512 0.015-0.85 0.022-0.983-0.378-0.984-1.096 0-0.72 0.14-1.102 0.986-1.094 3.754 0.035 7.509 0.035 11.264 0 0.848-0.008 0.983 0.378 0.984 1.096 0 0.72-0.139 1.115-0.986 1.094-1.916-0.05-3.835-0.02-5.752-0.02z" fill-rule="evenodd"/>
<path fill="#fff" clip-rule="evenodd" d="m18.903 192.92c-1.877 0-3.756-0.033-5.632 0.015-0.86 0.022-0.969-0.398-0.975-1.105-0.006-0.732 0.161-1.092 0.996-1.084 3.754 0.034 7.51 0.035 11.264 0 0.858-0.008 0.968 0.399 0.975 1.105 0.006 0.731-0.159 1.105-0.996 1.084-1.877-0.05-3.755-0.02-5.632-0.02z" fill-rule="evenodd"/>
<path fill="#fff" clip-rule="evenodd" d="m18.913 197.48c-1.877 0-3.755-0.033-5.631 0.015-0.848 0.021-0.986-0.375-0.986-1.095 0-0.718 0.137-1.103 0.985-1.095 3.754 0.035 7.509 0.035 11.264 0 0.847-0.008 0.986 0.375 0.986 1.095 0 0.719-0.136 1.117-0.985 1.095-1.877-0.05-3.755-0.02-5.633-0.02z" fill-rule="evenodd"/>
<path fill="#fff" clip-rule="evenodd" d="m18.92 133.95c0-1.639-0.015-3.278 0.005-4.917 0.014-1.116 0.62-1.522 1.595-0.972 2.854 1.611 5.689 3.255 8.492 4.953 1.02 0.618 0.977 1.519-0.067 2.148-2.74 1.655-5.499 3.281-8.279 4.868-1.096 0.625-1.732 0.209-1.743-1.043-0.013-1.68-0.003-3.36-0.003-5.04z" fill-rule="evenodd"/>
<path fill="#fff" clip-rule="evenodd" d="m73.4 95.836c-0.141-1.072 0.364-1.988 1.214-2.69 0.848-0.7 1.775-0.369 2.146 0.681 0.178 0.505 0.317 1.031 0.552 1.509 0.329 0.67 0.251 1.215-0.341 1.668-0.59 0.452-0.55 0.977-0.211 1.55 0.858 1.453 2.135 2.437 3.59 3.227 0.642 0.349 1.099 0.026 1.409-0.456 0.611-0.95 1.313-0.856 2.126-0.328 0.258 0.167 0.547 0.288 0.823 0.426 1.011 0.506 1.331 1.523 0.59 2.346-0.776 0.86-1.903 1.478-3.017 1.201-2.849-0.708-5.25-2.223-6.955-4.689-1.833-2.656-1.925-2.883-1.926-4.444z" fill-rule="evenodd"/>
<path fill="#2C2C2C" clip-rule="evenodd" d="m158.36 102.73c0 2.309 0 2.323-2.36 2.274-0.372-0.008-0.98 0.349-1.019-0.531-0.041-0.938 0.605-0.679 1.029-0.636 0.902 0.093 1.303-0.171 1.164-1.138-0.078-0.544 0.015-1.111-0.022-1.665-0.033-0.492 0.179-0.583 0.623-0.591 0.482-0.008 0.618 0.168 0.593 0.62-0.02 0.57 0 1.13 0 1.68z" fill-rule="evenodd"/>
</svg>
